{"title":"Red Planet-AC3-XviD-DVDRip 2000 TBS","uid":6440718,"size":1568461142,"categoryP":"video","categoryS":"movies","magnet":"?xt=urn:btih:5434bf1d72e760f8597dbf1746f05ba01c167984&amp;dn=Red+Planet-AC3-XviD-DVDRip+2000+TBS&amp;tr=udp%3A%2F%2Ftracker.openbittorrent.com%3A80&amp;tr=udp%3A%2F%2Fopen.demonii.com%3A1337&amp;tr=udp%3A%2F%2Ftracker.coppersurfer.tk%3A6969&amp;tr=udp%3A%2F%2Fexodus.desync.com%3A6969","seeders":0,"leechers":0,"uploader":"FatFreddy30","files":-1,"time":1306974146,"description":"Astronauts search for solutions to save a dying Earth by searching on Mars, only to have the mission go terribly awry...\n &lt;a href=&quot;\nhttp://www.imdb.com/title/tt0199753/&quot; rel=&quot;nofollow&quot; target=&quot;_NEW&quot;&gt;\nhttp://www.imdb.com/title/tt0199753/&lt;/a&gt;\n\nSubs: Dutch, English.\n\nHet is 2050. Kate Bowman leidt de belangrijkste missie van de 21ste eeuw: het voortbestaan van het menselijke ras. Ter voorbereiding van de kolonisatie gaat Bowman met haar crew naar Mars om de gebreken te herstellen van het Mars Terraforming Project. Wanneer er zich een explosie voordoet in de ruimte en het ruimteveer ernstig beschadigd wordt, geeft ze de bemanning opdracht het schip ter verlaten. Terwijl de crew zich voorbereid op een veiligere landing blijft Kate op het moederschip. Maar dan loopt het ÃƒÂ©ÃƒÂ©n na het ander mis...\n &lt;a href=&quot;\nhttp://www.moviemeter.nl/film/118&quot; rel=&quot;nofollow&quot; target=&quot;_NEW&quot;&gt;\nhttp://www.moviemeter.nl/film/118&lt;/a&gt;\n\nSubs: Engels, Nederlands.\n\nGeneral\nComplete name                    : Red Planet-AC3-XviD-DVDRip 2000 TBS\\Red Planet-AC3-XviD-DVDRip 2000.avi\nFormat                           : AVI\nFormat/Info                      : Audio Video Interleave\nFile size                        : 1.46 GiB\nDuration                         : 1h 42mn\nOverall bit rate                 : 2 046 Kbps\nWriting application              : VirtualDubMod 1.5.4.1 (build 2178/release)\nWriting library                  : VirtualDubMod build 2178/release\n\nVideo\nID                               : 0\nFormat                           : MPEG-4 Visual\nFormat profile                   : Simple@L3\nFormat settings, BVOP            : No\nFormat settings, QPel            : No\nFormat settings, GMC             : No warppoints\nFormat settings, Matrix          : Default (H.263)\nCodec ID                         : XVID\nCodec ID/Hint                    : XviD\nDuration                         : 1h 42mn\nBit rate                         : 1 652 Kbps\nWidth                            : 720 pixels\nHeight                           : 304 pixels\nDisplay aspect ratio             : 2.35:1\nFrame rate                       : 25.000 fps\nColor space                      : YUV\nChroma subsampling               : 4:2:0\nBit depth                        : 8 bits\nScan type                        : Progressive\nCompression mode                 : Lossy\nBits/(Pixel*Frame)               : 0.302\nStream size                      : 1.18 GiB (81%)\nWriting library                  : XviD 1.1.2 (UTC 2006-11-01)\n\nAudio\nID                               : 1\nFormat                           : AC-3\nFormat/Info                      : Audio Coding 3\nMode extension                   : CM (complete main)\nCodec ID                         : 2000\nDuration                         : 1h 42mn\nBit rate mode                    : Constant\nBit rate                         : 384 Kbps\nChannel(s)                       : 6 channels\nChannel positions                : Front: L C R, Side: L R, LFE\nSampling rate                    : 48.0 KHz\nBit depth                        : 16 bits\nCompression mode                 : Lossy\nStream size                      : 281 MiB (19%)\nAlignment                        : Split accross interleaves\nInterleave, duration             : 40 ms (1.00 video frame)\nInterleave, preload duration     : 500 ms\n\nEnjoy...\n\nTBS.","torrent":{"xt":"urn:btih:5434bf1d72e760f8597dbf1746f05ba01c167984","amp;dn":"Red+Planet-AC3-XviD-DVDRip+2000+TBS","amp;tr":["udp%3A%2F%2Ftracker.openbittorrent.com%3A80","udp%3A%2F%2Fopen.demonii.com%3A1337","udp%3A%2F%2Ftracker.coppersurfer.tk%3A6969","udp%3A%2F%2Fexodus.desync.com%3A6969"],"infoHash":"5434bf1d72e760f8597dbf1746f05ba01c167984","infoHashBuffer":{"type":"Buffer","data":[84,52,191,29,114,231,96,248,89,125,191,23,70,240,91,160,28,22,121,132]},"announce":[],"urlList":[]}}